# AST/ASF file generated using VICON BodyLanguage
# -----------------------------------------------
:version 1.10
:name VICON
:units
  mass 1.0
  length 0.45
  angle deg
:documentation
   .ast/.asf automatically generated from VICON data using
   VICON BodyBuilder and BodyLanguage model FoxedUp or BRILLIANT.MOD
:root
   order TX TY TZ RX RY RZ
   axis XYZ
   position 0 0 0  
   orientation 0 0 0 
:bonedata
  begin
     id 1 
     name lhipjoint
     direction 0.62366 -0.717238 0.310833 
     length 2.53602 
     axis 0 0 0  XYZ
  end
  begin
     id 2 
     name lfemur
     direction 0.34202 -0.939693 0  
     length 7.40817  
     axis 0 0 20  XYZ
    dof rx ry rz
    limits (-160.0 20.0)
           (-70.0 70.0)
           (-60.0 70.0)
  end
  begin
     id 3 
     name ltibia
     direction 0.34202 -0.939693 0   
     length 7.7045   
     axis 0 0 20   XYZ
    dof rx
    limits (-10.0 170.0)
  end
  begin
     id 4 
     name lfoot
     direction 0.0673888 -0.185149 0.980397   
     length 2.09456   
     axis -90 7.62852e-016 20   XYZ
    dof rx rz
    limits (-45.0 90.0)
           (-70.0 20.0)
  end
  begin
     id 5 
     name ltoes
     direction 1.53575e-011 -4.21994e-011 1   
     length 1.05543   
     axis -90 7.62852e-016 20   XYZ
    dof rx
    limits (-90.0 20.0)
  end
  begin
     id 6 
     name rhipjoint
     direction -0.489018 -0.800347 0.346851   
     length 2.27268  
     axis 0 0 0  XYZ 
  end
  begin
     id 7 
     name rfemur
     direction -0.34202 -0.939693 0   
     length 7.55487   
     axis 0 0 -20   XYZ
    dof rx ry rz
    limits (-160.0 20.0)
           (-70.0 70.0)
           (-70.0 60.0)
  end
  begin
     id 8 
     name rtibia
     direction -0.34202 -0.939693 0   
     length 7.78969   
     axis 0 0 -20   XYZ
    dof rx
    limits (-10.0 170.0)
 end
 begin
     id 9 
     name rfoot
     direction -0.0859318 -0.236096 0.967923   
     length 2.19143  
     axis -90 -7.62852e-016 -20   XYZ
    dof rx rz
    limits (-45.0 90.0)
           (-20.0 70.0)
  end
  begin
     id 10 
     name rtoes
     direction -1.53538e-011 -4.21989e-011 1   
     length 1.09845   
     axis -90 -7.62852e-016 -20   XYZ
    dof rx
    limits (-90.0 20.0)
  end
  begin
     id 11 
     name lowerback
     direction -0.00762546 0.998978 -0.0445553   
     length 1.98161   
     axis 0 0 0   XYZ
    dof rx ry rz
    limits (-20.0 45.0)
           (-30.0 30.0)
           (-30.0 30.0)
  end
  begin
     id 12 
     name upperback
     direction 0.0422361 0.998867 -0.0219156   
     length 1.97558   
     axis 0 0 0   XYZ
    dof rx ry rz
    limits (-20.0 45.0)
           (-30.0 30.0)
           (-30.0 30.0)
  end
  begin
     id 13 
     name thorax
     direction 0.0442465 0.999021 7.47603e-005   
     length 1.97799   
     axis 0 0 0   XYZ
    dof rx ry rz
    limits (-20.0 45.0)
           (-30.0 30.0)
           (-30.0 30.0)
  end
  begin
     id 14 
     name lowerneck
     direction 0.00312169 0.984641 0.174564   
     length 1.78995   
     axis 0 0 0   XYZ
    dof rx ry rz
    limits (-20.0 45.0)
           (-30.0 30.0)
           (-30.0 30.0)
  end
  begin
     id 15 
     name upperneck
     direction -0.0383028 0.985255 -0.166749   
     length 1.83053   
     axis 0 0 0   XYZ
    dof rx ry rz
    limits (-20.0 45.0)
           (-30.0 30.0)
           (-30.0 30.0)
  end
  begin
     id 16
     name head
     direction -0.0129546 0.997059 -0.0755386  
     length 1.84088  
     axis 0 0 0   XYZ
    dof rx ry rz
    limits (-20.0 45.0)
           (-30.0 30.0)
           (-30.0 30.0)
  end
  begin
     id 17 
     name lclavicle
     direction 0.912857 0.370519 -0.171488  
     length 3.51279  
     axis 0 0 0   XYZ
    dof ry rz
    limits (-20.0 10.0)
           (0.0 20.0)
  end
  begin
     id 18 
     name lhumerus
     direction 1 -4.48962e-011 3.64361e-027   
     length 4.95663   
     axis 180 -30 -90   XYZ
    dof rx ry rz
    limits (-60.0 90.0)
           (-90.0 90.0)
           (-90.0 90.0)
  end
  begin
     id 19
     name lradius
     direction 1 -4.48974e-011 5.97202e-027   
     length 3.38177   
     axis 180 -30 -90   XYZ
    dof rx
    limits (-10.0 170.0)
  end
  begin
     id 20
     name lwrist
     direction 1 -4.4896e-011 9.83288e-027   
     length 1.69088   
     axis -9.31221e-015 90 90   XYZ
    dof ry
    limits (-180.0 0.0)
 end
  begin
     id 21 
     name lhand
     direction 1 -4.4902e-011 1.96551e-026   
     length 0.662909   
     axis -1.25475e-014 90 90   XYZ
    dof rx rz
    limits (-90.0 90.0)
           (-45.0 45.0)
  end
  begin
     id 22 
     name lfingers
     direction 1 -4.48971e-011 3.93277e-026   
     length 0.534454   
     axis -2.50945e-014 90 90   XYZ
    dof rx
    limits (0.0 90.0)
  end
  begin
     id 23
     name lthumb
     direction 0.707107 -6.34933e-011 0.707107   
     length 0.767373   
     axis -90 45 -4.80359e-014   XYZ
    dof rx rz
    limits (-45.0 45.0)
           (-45.0 45.0)
  end
  begin
     id 24 
     name rclavicle
     direction -0.900919 0.395364 -0.178976   
     length 3.40627  
     axis 0 0 0   XYZ 
    dof ry rz
    limits (-10.0 20.0)
           (-20.0 0.0)
  end
  begin
     id 25 
     name rhumerus
     direction -1 -4.48969e-011 1.03875e-027  
     length 5.08365   
     axis 180 30 90   XYZ
    dof rx ry rz
    limits (-90.0 60.0)
           (-90.0 90.0)
           (-90.0 90.0)
  end
  begin
     id 26 
     name rradius
     direction -1 -4.48951e-011 5.02733e-027   
     length 3.35984   
     axis 180 30 90   XYZ
    dof rx
    limits (-10.0 170.0)
  end
  begin
     id 27 
     name rwrist
     direction -1 -4.49011e-011 9.82828e-027   
     length 1.67992   
     axis -9.31221e-015 -90 -90   XYZ
    dof ry
    limits (-180.0 0.0)
  end
  begin
     id 28
     name rhand
     direction -1 -4.48894e-011 1.96774e-026   
     length 0.820764   
     axis -1.25475e-014 -90 -90   XYZ
    dof rx rz
    limits (-90.0 90.0)
           (-45.0 45.0)
  end
  begin
     id 29
     name rfingers
     direction -1 -4.49095e-011 3.92833e-026   
     length 0.661721   
     axis -2.50945e-014 -90 -90   XYZ
    dof rx
    limits (0.0 90.0)
  end
  begin
     id 30
     name rthumb
     direction -0.707107 -6.34881e-011 0.707107   
     length 0.950103   
     axis -90 -45 4.80359e-014   XYZ
    dof rx rz
    limits (-45.0 45.0)
           (-45.0 45.0)
  end
:hierarchy
  begin
    root lhipjoint rhipjoint lowerback
    lhipjoint lfemur
    lfemur ltibia
    ltibia lfoot
    lfoot ltoes
    rhipjoint rfemur
    rfemur rtibia
    rtibia rfoot
    rfoot rtoes
    lowerback upperback
    upperback thorax
    thorax lowerneck lclavicle rclavicle
    lowerneck upperneck
    upperneck head
    lclavicle lhumerus
    lhumerus lradius
    lradius lwrist
    lwrist lhand lthumb
    lhand lfingers
    rclavicle rhumerus
    rhumerus rradius
    rradius rwrist
    rwrist rhand rthumb
    rhand rfingers
  end

#!OML:ASF I:\golf\golf\golf 2\Subject 1\2002-09-07\Subject1.ASF
:FULLY-SPECIFIED
:DEGREES
62
root -6.66885 17.8722 0.201364 -121.822 85.2329 -138.65
lowerback 2.34032 1.53986 -1.8869
upperback 4.1411 2.10454 5.07921
thorax 2.70844 0.985047 6.34365
lowerneck -14.2616 -3.13584 1.46265
upperneck 41.1936 -1.72123 -3.07882
head 17.4982 -0.231579 -1.78649
rclavicle 3.97569e-015 1.35174e-014
rhumerus -6.26548 1.47567 -99.2528
rradius 20.8687
rwrist -37.2989
rhand -13.4658 -5.29146
rfingers 7.12502
rthumb 12.6441 -34.8887
lclavicle 3.97569e-015 1.35174e-014
lhumerus -14.912 -52.4122 114.426
lradius 32.1165
lwrist 44.6269
lhand -12.633 71.3766
lfingers 7.12502
lthumb -166.553 79.0774
rfemur -26.2219 -1.20279 10.8388
rtibia 24.8018
rfoot -10.8741 -13.8218
rtoes 21.9186
lfemur -28.0246 4.33195 -6.82045
ltibia 24.9977
lfoot -8.78792 0.972036
ltoes -23.9593
63
root -6.66986 17.8712 0.200812 -121.517 85.1938 -138.359
lowerback 2.34146 1.55389 -1.8593
upperback 4.13778 2.12381 5.08785
thorax 2.70251 0.995768 6.33665
lowerneck -14.2887 -3.15077 1.52949
upperneck 41.2208 -1.73799 -3.14068
head 17.5175 -0.23508 -1.83103
rclavicle 4.09496e-014 8.74653e-015
rhumerus -6.13837 0.796841 -99.2699
rradius 20.6294
rwrist -36.6941
rhand -13.4275 -5.21178
rfingers 7.12502
rthumb 12.6811 -34.8068
lclavicle 4.09496e-014 8.74653e-015
lhumerus -14.9205 -52.5088 114.429
lradius 32.1492
lwrist 44.596
lhand -12.7052 71.5535
lfingers 7.12502
lthumb -166.623 78.896
rfemur -26.2415 -1.18984 10.889
rtibia 24.7962
rfoot -10.822 -13.8891
rtoes 21.0247
lfemur -28.0507 4.32832 -6.76436
ltibia 25.0133
lfoot -8.81382 0.991546
ltoes -23.8581
64
root -6.67046 17.8708 0.200821 -120.953 85.1789 -137.764
lowerback 2.37828 1.55832 -1.8672
upperback 4.15253 2.13058 5.11359
thorax 2.69531 0.999087 6.36767
lowerneck -14.2778 -3.14266 1.54143
upperneck 41.2171 -1.71918 -3.16498
head 17.5127 -0.229108 -1.84066
rclavicle 1.03368e-014 1.35174e-014
rhumerus -6.3266 1.61233 -99.1953
rradius 21.0027
rwrist -37.4999
rhand -13.6949 -5.42582
rfingers 7.12502
rthumb 12.4233 -35.0366
lclavicle 1.03368e-014 1.35174e-014
lhumerus -14.8958 -52.5202 114.407
lradius 32.2053
lwrist 44.5014
lhand -12.6448 71.4937
lfingers 7.12502
lthumb -166.564 78.9596
rfemur -26.2159 -1.07347 10.9155
rtibia 24.7939
rfoot -10.8809 -13.9889
rtoes 20.6865
lfemur -28.0144 4.3407 -6.70926
ltibia 25.0285
lfoot -8.81632 1.00829
ltoes -23.6238
65
root -6.67013 17.8706 0.200766 -120.472 85.1752 -137.243
lowerback 2.40475 1.56457 -1.86792
upperback 4.17078 2.13953 5.12825
thorax 2.69787 1.00345 6.38323
lowerneck -14.2431 -3.14019 1.50457
upperneck 41.1957 -1.72124 -3.12369
head 17.4927 -0.230825 -1.81425
rclavicle -1.66979e-014 -3.81667e-014
rhumerus -6.5202 2.32433 -99.1159
rradius 21.3843
rwrist -38.338
rhand -13.8379 -5.60745
rfingers 7.12502
rthumb 12.2854 -35.2266
lclavicle -1.66979e-014 -3.81667e-014
lhumerus -14.8672 -52.521 114.387
lradius 32.2491
lwrist 44.3462
lhand -12.585 71.5133
lfingers 7.12502
lthumb -166.507 78.9438
rfemur -26.1755 -1.06772 10.9523
rtibia 24.7869
rfoot -10.1945 -14.1587
rtoes 16.2218
lfemur -27.9706 4.38201 -6.68435
ltibia 25.0308
lfoot -8.8503 1.00932
ltoes -23.9337
66
root -6.67032 17.8699 0.2007 -120.29 85.148 -137.043
lowerback 2.4189 1.54709 -1.87836
upperback 4.1762 2.11685 5.16209
thorax 2.69705 0.991745 6.42514
lowerneck -14.1813 -3.13149 1.4249
upperneck 41.1662 -1.69453 -3.09124
head 17.4631 -0.228817 -1.77825
rclavicle -1.03368e-014 -1.59028e-015
rhumerus -6.20109 0.656119 -99.1763
rradius 20.7201
rwrist -36.9008
rhand -13.5097 -5.26538
rfingers 7.12502
rthumb 12.6019 -34.8653
lclavicle -1.03368e-014 -1.59028e-015
lhumerus -14.8054 -52.4476 114.369
lradius 32.2348
lwrist 44.145
lhand -12.6032 71.7279
lfingers 7.12502
lthumb -166.524 78.728
rfemur -26.1441 -1.08065 10.9921
rtibia 24.7694
rfoot -10.6987 -13.9487
rtoes 21.0122
lfemur -27.9572 4.39056 -6.65219
ltibia 25.0233
lfoot -8.88078 1.03352
ltoes -24.2797
67
root -6.67075 17.8703 0.20035 -120.549 85.1502 -137.287
lowerback 2.44236 1.54541 -1.88842
upperback 4.18254 2.11468 5.15445
thorax 2.69067 0.990534 6.42217
lowerneck -14.147 -3.13391 1.38979
upperneck 41.1545 -1.69251 -3.07256
head 17.4486 -0.230876 -1.76195
rclavicle 7.95139e-015 4.45278e-014
rhumerus -6.68536 2.7478 -99.0445
rradius 21.7175
rwrist -39.3286
rhand -14.1198 -5.65544
rfingers 7.12502
rthumb 12.0136 -35.2906
lclavicle 7.95139e-015 4.45278e-014
lhumerus -14.8076 -52.6115 114.364
lradius 32.2624
lwrist 44.1768
lhand -12.7379 71.8767
lfingers 7.12502
lthumb -166.654 78.5707
rfemur -26.115 -1.03004 10.96
rtibia 24.7553
rfoot -10.5706 -14.0361
rtoes 20.3484
lfemur -27.937 4.36788 -6.66494
ltibia 25.0142
lfoot -8.862 1.04334
ltoes -24.3183
68
root -6.67025 17.8712 0.198745 -120.832 85.1501 -137.545
lowerback 2.47063 1.57538 -1.83183
upperback 4.20053 2.155 5.10894
thorax 2.69157 1.01257 6.34038
lowerneck -14.1822 -3.1649 1.39086
upperneck 41.1753 -1.75457 -3.03343
head 17.4678 -0.249439 -1.75644
rclavicle 3.57812e-014 1.59028e-015
rhumerus -6.83856 3.45935 -98.9954
rradius 22.176
rwrist -40.444
rhand -14.6413 -5.79718
rfingers 7.12502
rthumb 11.5107 -35.4611
lclavicle 3.57812e-014 1.59028e-015
lhumerus -14.8764 -53.0071 114.362
lradius 32.365
lwrist 44.4324
lhand -12.7584 71.7104
lfingers 7.12502
lthumb -166.674 78.7357
rfemur -26.0773 -1.02415 10.9276
rtibia 24.753
rfoot -10.4214 -14.0708
rtoes 19.1781
lfemur -27.8979 4.33573 -6.68297
ltibia 24.9994
lfoot -8.83234 1.03705
ltoes -24.3135
69
root -6.66983 17.8715 0.196678 -121.114 85.1121 -137.827
lowerback 2.44242 1.59778 -1.71572
upperback 4.21759 2.1851 5.06144
thorax 2.72658 1.03046 6.22455
lowerneck -14.1834 -3.18501 1.39456
upperneck 41.1575 -1.81881 -2.9599
head 17.4565 -0.265237 -1.73453
rclavicle 2.8625e-014 1.82882e-014
rhumerus -6.7357 2.85716 -99.0394
rradius 22.1251
rwrist -40.2186
rhand -14.9893 -5.66078
rfingers 7.12502
rthumb 11.175 -35.3432
lclavicle 2.8625e-014 1.82882e-014
lhumerus -14.9363 -53.3154 114.35
lradius 32.4674
lwrist 44.5846
lhand -12.6663 71.5999
lfingers 7.12502
lthumb -166.585 78.852
rfemur -26.0619 -1.06949 10.9311
rtibia 24.7553
rfoot -10.6817 -13.9423
rtoes 21.026
lfemur -27.8991 4.3109 -6.68108
ltibia 24.9825
lfoot -8.78117 1.04891
ltoes -24.35
70
root -6.67001 17.8711 0.195016 -121.69 85.0992 -138.433
lowerback 2.3756 1.55954 -1.76352
upperback 4.21842 2.1331 5.09083
thorax 2.769 1.00166 6.28621
lowerneck -14.1112 -3.15767 1.3568
upperneck 41.1139 -1.7571 -2.97874
head 17.4157 -0.249948 -1.7228
rclavicle 5.96354e-015 -1.43125e-014
rhumerus -6.64033 1.88858 -99.0671
rradius 21.91
rwrist -39.3616
rhand -14.9906 -5.44516
rfingers 7.12502
rthumb 11.1738 -35.1276
lclavicle 5.96354e-015 -1.43125e-014
lhumerus -14.9102 -53.3094 114.323
lradius 32.5465
lwrist 44.6054
lhand -12.6646 71.6525
lfingers 7.12502
lthumb -166.583 78.7995
rfemur -26.0786 -1.09352 10.8946
rtibia 24.7613
rfoot -11.2187 -13.758
rtoes 24.8112
lfemur -27.9416 4.28834 -6.71836
ltibia 24.969
lfoot -8.74029 1.05678
ltoes -24.6979
71
root -6.67028 17.8705 0.19433 -122.083 85.1223 -138.831
lowerback 2.38776 1.52871 -1.89869
upperback 4.20495 2.09164 5.14709
thorax 2.74757 0.977084 6.42319
lowerneck -14.0966 -3.15068 1.34346
upperneck 41.1267 -1.68145 -3.11481
head 17.4201 -0.23907 -1.76895
rclavicle -7.15625e-015 3.73715e-014
rhumerus -6.63372 1.45789 -99.0196
rradius 21.8115
rwrist -38.9811
rhand -14.8321 -5.31534
rfingers 7.12502
rthumb 11.3267 -34.9895
lclavicle -7.15625e-015 3.73715e-014
lhumerus -14.8843 -53.1982 114.312
lradius 32.6146
lwrist 44.6559
lhand -12.6377 71.5066
lfingers 7.12502
lthumb -166.558 78.9472
rfemur -26.0866 -1.16989 10.8671
rtibia 24.7699
rfoot -8.85534 -14.5211
rtoes 2.67128
lfemur -27.9517 4.26856 -6.75699
ltibia 24.9647
lfoot -8.76475 1.03766
ltoes -24.5509
72
root -6.67037 17.8709 0.193893 -122.522 85.1063 -139.263
lowerback 2.42698 1.53958 -1.89183
upperback 4.19576 2.10661 5.13595
thorax 2.71456 0.985811 6.40552
lowerneck -14.1143 -3.18387 1.39617
upperneck 41.1277 -1.71729 -3.19358
head 17.4212 -0.255837 -1.82119
rclavicle 8.74653e-015 1.51076e-014
rhumerus -6.50199 0.961537 -99.0294
rradius 21.6011
rwrist -38.6894
rhand -14.6994 -5.20538
rfingers 7.12502
rthumb 11.4547 -34.8725
lclavicle 8.74653e-015 1.51076e-014
lhumerus -14.8854 -53.1252 114.285
lradius 32.6487
lwrist 44.6837
lhand -12.5129 71.2225
lfingers 7.12502
lthumb -166.437 79.2392
rfemur -26.0763 -1.26208 10.8791
rtibia 24.7741
rfoot -8.13892 -14.5694
rtoes -4.57941
lfemur -27.9568 4.23433 -6.76303
ltibia 24.9632
lfoot -8.81954 1.01054
ltoes -23.8727
73
root -6.66995 17.8707 0.193179 -122.814 85.0512 -139.559
lowerback 2.39372 1.52737 -1.8163
upperback 4.21262 2.09044 5.11951
thorax 2.75558 0.978987 6.34655
lowerneck -14.0955 -3.18081 1.4255
upperneck 41.0886 -1.72275 -3.20309
head 17.3928 -0.25653 -1.83057
rclavicle -2.70347e-014 -3.81667e-014
rhumerus -6.36029 0.582894 -99.0872
rradius 21.4163
rwrist -38.3847
rhand -14.7483 -5.0951
rfingers 7.12502
rthumb 11.4075 -34.7648
lclavicle -2.70347e-014 -3.81667e-014
lhumerus -14.7549 -52.8947 114.131
lradius 32.6255
lwrist 44.5716
lhand -12.2414 70.9367
lfingers 7.12502
lthumb -166.176 79.5426
rfemur -26.0637 -1.24725 10.9
rtibia 24.7683
rfoot -8.05678 -14.6202
rtoes -5.11162
lfemur -27.9796 4.22256 -6.7452
ltibia 24.9614
lfoot -8.8401 1.00735
ltoes -24.2197
74
root -6.66912 17.8699 0.193368 -122.637 85.0467 -139.36
lowerback 2.36573 1.51131 -1.81169
upperback 4.23926 2.06866 5.12121
thorax 2.80189 0.966881 6.34781
lowerneck -14.0839 -3.15909 1.41776
upperneck 41.0915 -1.67703 -3.22266
head 17.3932 -0.241882 -1.82982
rclavicle 2.98177e-014 2.3059e-014
rhumerus -6.35852 0.746934 -99.1093
rradius 21.4658
rwrist -38.6234
rhand -14.9575 -5.05903
rfingers 7.12502
rthumb 11.2057 -34.7398
lclavicle 2.98177e-014 2.3059e-014
lhumerus -14.6283 -52.696 113.966
lradius 32.6169
lwrist 44.4405
lhand -11.9636 70.7849
lfingers 7.12502
lthumb -165.908 79.7129
rfemur -26.038 -1.22836 10.9115
rtibia 24.7616
rfoot -8.09204 -14.6262
rtoes -4.86503
lfemur -27.9459 4.21209 -6.72914
ltibia 24.9592
lfoot -8.83345 1.04273
ltoes -24.7504
75
root -6.669 17.8704 0.194048 -122.358 85.0571 -139.053
lowerback 2.41883 1.51075 -1.84611
upperback 4.23519 2.06845 5.13367
thorax 2.76643 0.966643 6.37881
lowerneck -14.1023 -3.1559 1.37107
upperneck 41.1311 -1.65706 -3.20948
head 17.4229 -0.237662 -1.81308
rclavicle 2.14687e-014 -5.08889e-014
rhumerus -6.38063 0.786039 -99.1103
rradius 21.4953
rwrist -38.8145
rhand -15.0733 -5.03436
rfingers 7.12502
rthumb 11.094 -34.7211
lclavicle 2.14687e-014 -5.08889e-014
lhumerus -14.6102 -52.59 113.905
lradius 32.6389
lwrist 44.3412
lhand -11.8245 70.6254
lfingers 7.12502
lthumb -165.774 79.8818
rfemur -26.0117 -1.239 10.9358
rtibia 24.7585
rfoot -8.02984 -14.6047
rtoes -5.38525
lfemur -27.8962 4.15605 -6.69326
ltibia 24.9575
lfoot -8.81787 1.08371
ltoes -24.5126
76
root -6.66935 17.8708 0.193829 -122.438 85.0434 -139.133
lowerback 2.4626 1.51 -1.84656
upperback 4.21756 2.06791 5.12886
thorax 2.72361 0.967594 6.37181
lowerneck -14.1198 -3.15802 1.36207
upperneck 41.149 -1.66704 -3.18318
head 17.438 -0.238916 -1.80199
rclavicle 1.19271e-015 -1.35174e-014
rhumerus -6.36341 0.501292 -99.1307
rradius 21.4287
rwrist -38.631
rhand -15.056 -4.95171
rfingers 7.12502
rthumb 11.1107 -34.6376
lclavicle 1.19271e-015 -1.35174e-014
lhumerus -14.5662 -52.4075 113.834
lradius 32.586
lwrist 44.1164
lhand -11.5633 70.0466
lfingers 7.12502
lthumb -165.522 80.4784
rfemur -26.0098 -1.27006 10.9533
rtibia 24.7581
rfoot -7.92654 -14.5935
rtoes -6.03186
lfemur -27.9039 4.12547 -6.67491
ltibia 24.9551
lfoot -8.79849 1.08686
ltoes -24.241
